<?xml version="1.0" encoding="utf-8"?>
<!-- Generator: Adobe Illustrator 24.2.3, SVG Export Plug-In . SVG Version: 6.00 Build 0)  -->
<svg version="1.1" id="Layer_1" xmlns="http://www.w3.org/2000/svg" xmlns:xlink="http://www.w3.org/1999/xlink" x="0px" y="0px"
	 viewBox="0 0 250 60" style="enable-background:new 0 0 250 60;" xml:space="preserve">
<style type="text/css">
	.st0{fill:#29725C;}
	.st1{fill:#2C745E;}
	.st2{fill:#2A735C;}
	.st3{fill:#2B745E;}
	.st4{fill:#2B735D;}
	.st5{fill:#0D0D0D;}
	.st6{fill:#1C1C1C;}
	.st7{fill:#161616;}
	.st8{fill:#171717;}
	.st9{fill:#1B1B1B;}
	.st10{fill:#222222;}
	.st11{fill:#202020;}
	.st12{fill:#1F1F1F;}
	.st13{fill:#1E1E1E;}
	.st14{fill:#474747;}
	.st15{fill:#AFC8C0;}
	.st16{fill:#F2F5F0;}
	.st17{fill:#E1EAE0;}
	.st18{fill:#E9E9E9;}
	.st19{fill:#F0F0F0;}
</style>
<g id="_x35_9lUIV_1_">
	<g>
		<g>
			<path class="st0" d="M51.3,1.93c2.09,0.25,2.15,0.25,2.12,2.4c-0.07,6.07-0.04,12.14-0.15,18.21
				c-0.18,9.82-0.08,19.64-0.12,29.45c-0.01,0.91,0.25,1.27,1.21,1.24c1.84-0.07,3.7-0.09,5.54,0c1.2,0.06,1.52-0.36,1.5-1.53
				c-0.07-4.35,0.01-8.7-0.07-13.04c-0.06-3.1,0.26-6.18,0.26-9.28c0.02-8.57,0.07-17.14,0.05-25.71c0-0.98,0.24-1.63,1.15-1.94
				c1.49-0.52,2.21,0.04,2.21,1.62c-0.01,6.67-0.12,13.33-0.1,19.99c0.03,9.05-0.11,18.1-0.01,27.15c0.03,2.72,0.02,2.72,2.8,2.7
				c1.31-0.01,2.62-0.06,3.93,0.02c1.17,0.07,1.55-0.36,1.53-1.53c-0.07-3.34,0.02-6.67-0.04-10.01c-0.08-4.22,0.29-8.44,0.29-12.66
				c0-8.32,0-16.64,0.02-24.97c0-1.72,0.13-1.83,1.78-1.97c1.37-0.12,1.54,0.03,1.54,1.42c-0.03,10.12,0.08,20.24-0.15,30.35
				c-0.15,6.91-0.09,13.81-0.16,20.72c-0.02,1.64-0.07,1.69-1.71,1.69c-7.74,0-15.49,0-23.23,0c-1.59,0-1.67-0.07-1.67-1.73
				c0-7.15-0.12-14.3,0.05-21.44c0.1-4.28-0.01-8.56,0.12-12.84c0.1-3.43-0.09-6.86,0.03-10.28c0.07-2.08,0.21-4.14-0.15-6.21
				c-0.15-0.87-0.01-1.7,1.12-1.86l0.15,0.08L51.3,1.93z"/>
			<path class="st0" d="M168.9,16.95c-10.06,0-20.12-0.06-30.18,0.02c-8.25,0.06-16.51-0.14-24.76-0.14
				c-10.29,0-20.58,0.01-30.87,0.02c-1.72,0-2.31-0.81-1.82-2.48c0.16-0.54,0.52-0.57,0.95-0.57c1.07,0,2.14,0.01,3.22-0.01
				c9.39-0.11,18.78-0.15,28.17-0.03c10.29,0.13,20.58,0.01,30.87,0.05c5.05,0.02,10.11,0.3,15.16,0.19
				c4.82-0.1,9.62,0.13,14.43,0.01c1.54-0.04,3.09,0.12,4.63,0.13c7.55,0.05,15.09,0.09,22.64,0.1c1.01,0,1.71,0.05,1.63,1.38
				c-0.08,1.55,0,1.58-1.78,1.58c-6.96,0-13.93-0.02-20.89-0.03c-3.8-0.01-7.6,0-11.4,0C168.89,17.1,168.9,17.03,168.9,16.95z"/>
			<path class="st1" d="M83.73,46.7c0.13-2.68,0.38-5.35,0.39-8.02c0-1.43,0.23-1.67,1.66-1.66c2.07,0.02,4.15-0.14,6.21,0.34
				c2.86,0.68,4.58,2.62,4.67,5.47c0.06,1.86-1.23,4.39-4.08,5.19c-0.95,0.27-0.77,0.57-0.31,1.19c1.35,1.8,2.67,3.63,3.93,5.49
				c0.73,1.09,0.55,1.4-0.7,1.6c-1.07,0.17-1.9-0.02-2.58-1.06c-1.32-2.03-2.83-3.95-4.22-5.95c-0.32-0.46-0.61-0.94-1.23-0.76
				c-0.57,0.17-0.51,0.72-0.52,1.2c-0.04,1.66-0.08,3.32-0.12,4.99c-0.03,1.3-0.48,1.78-1.63,1.76c-1.06-0.02-1.45-0.45-1.46-1.78
				C83.71,52.04,83.73,49.37,83.73,46.7z M87,42.8c-0.01,0-0.01,0-0.01,0c0,0.59,0.05,1.19-0.01,1.77c-0.1,0.9,0.2,1.29,1.16,1.26
				c1.24-0.04,2.47,0.01,3.65-0.52c2.08-0.93,2.46-2.91,0.88-4.56c-0.93-0.97-2.13-0.97-3.28-1.05c-2.37-0.16-2.37-0.11-2.38,2.2
				C87,42.21,87,42.51,87,42.8z"/>
			<path class="st2" d="M190.28,47.41c0-2.74-0.05-5.47,0.02-8.21c0.04-1.64,0.16-1.72,1.77-1.71c2.48,0.02,4.94-0.14,7.37,0.83
				c2.66,1.06,4.25,3.62,3.28,6.32c-0.6,1.67-1.57,3.23-3.41,3.86c-1.03,0.35-0.94,0.79-0.41,1.51c1.06,1.43,2.07,2.9,3.1,4.34
				c0.55,0.77,0.95,1.59,0.28,2.43c-0.4,0.5-2.23,0.01-2.79-0.67c-1.28-1.55-2.43-3.21-3.54-4.89c-0.3-0.45-0.59-0.89-0.91-1.32
				c-0.32-0.42-0.64-0.96-1.28-0.73c-0.58,0.21-0.4,0.79-0.41,1.25c-0.03,1.66-0.02,3.32-0.07,4.99c-0.03,1.27-1.63,2.17-2.66,1.49
				c-0.53-0.35-0.38-0.96-0.39-1.47c-0.01-2.68-0.01-5.35-0.01-8.03C190.24,47.41,190.26,47.41,190.28,47.41z M193.2,43.54
				c0.02,0.43,0.06,1.2,0.1,1.97c0.02,0.36,0.02,0.76,0.51,0.77c1.67,0.06,3.35,0.18,4.85-0.76c1.47-0.92,1.61-3.16,0.26-4.28
				c-0.64-0.53-1.39-0.86-2.26-0.95C193.54,40,193.38,40.12,193.2,43.54z"/>
			<path class="st3" d="M123.81,46.79c0-2.73,0.04-5.46-0.02-8.18c-0.02-1.11,0.52-1.24,1.43-1.24c0.92,0,1.47,0.2,1.45,1.28
				c-0.05,2.02,0.02,4.05-0.05,6.07c-0.03,0.93,0.22,1.29,1.18,1.27c2.08-0.05,4.17-0.04,6.25,0.01c0.95,0.02,1.23-0.34,1.21-1.26
				c-0.04-2.02,0.05-4.04,0.06-6.06c0-0.8,0.26-1.21,1.14-1.18c0.81,0.04,1.6,0.02,1.73,1.08c0.06,0.47,0.13,0.95,0.11,1.42
				c-0.21,4.76-0.13,9.51-0.12,14.27c0,0.53-0.02,1.08-0.13,1.59c-0.24,1.05-1.09,0.89-1.87,0.88c-0.77-0.01-1.02-0.42-0.99-1.15
				c0.05-1.89-0.25-3.79,0.03-5.67c0.14-0.93-0.14-1.33-1.11-1.31c-2.14,0.03-4.29,0.03-6.43,0c-0.79-0.01-1.03,0.35-1.03,1.08
				c0.01,1.78-0.09,3.57-0.02,5.35c0.04,0.92-0.08,1.52-1.14,1.57c-1.66,0.08-2-0.11-2.02-1.42c-0.03-2.79-0.01-5.59-0.01-8.39
				C123.57,46.79,123.69,46.79,123.81,46.79z"/>
			<path class="st1" d="M177.77,47.18c0.05-2.68,0.13-5.36,0.15-8.03c0.01-0.96,0.38-1.42,1.33-1.5c2.85-0.25,5.71-0.1,8.56-0.12
				c0.95-0.01,1.01,0.82,1.06,1.57c0.06,0.85-0.44,0.98-1.12,0.97c-1.79-0.02-3.57-0.01-5.36-0.01c-1.57,0-1.71,0.11-1.57,1.59
				c0.1,1.07,0.15,2.15,0.01,3.21c-0.13,1.06,0.32,1.37,1.3,1.33c1.72-0.07,3.46-0.01,5.18-0.12c1.29-0.09,1.27,0.63,1.26,1.55
				c-0.01,1.1-0.58,1.33-1.5,1.16c-1.65-0.31-3.3,0.05-4.95-0.09c-0.86-0.07-1.49,0.2-1.32,1.35c0.14,0.93,0.05,1.89,0.05,2.84
				c0,0.95,0.38,1.38,1.41,1.34c1.9-0.06,3.81,0.03,5.72-0.02c0.88-0.02,1.36,0.26,1.37,1.18c0.01,0.99-0.51,1.5-1.47,1.56
				c-2.85,0.18-5.7-0.23-8.55-0.08c-1.19,0.06-1.56-0.56-1.56-1.64C177.78,52.53,177.77,49.86,177.77,47.18z"/>
			<path class="st4" d="M153.73,56.73c-0.89,0.1-1.46-0.34-1.76-1.28c-0.32-1.01-0.78-1.98-1.07-2.99
				c-0.34-1.19-0.97-1.81-2.29-1.68c-1,0.1-2.03,0.11-3.03-0.01c-1.14-0.12-1.6,0.47-1.91,1.39c-0.36,1.06-0.75,2.12-1.14,3.18
				c-0.44,1.18-1.7,1.72-2.87,1.27c-0.46-0.17-0.47-0.52-0.37-0.86c0.18-0.68,0.38-1.37,0.65-2.03c2.08-4.96,4.17-9.91,6.26-14.86
				c0.09-0.22,0.15-0.46,0.28-0.65c0.23-0.33,0.4-0.79,0.88-0.8c0.58-0.02,0.81,0.44,0.99,0.88c0.77,1.85,1.59,3.69,2.25,5.58
				c1.32,3.73,2.99,7.33,4.45,11C155.67,56.45,155.47,56.83,153.73,56.73z M147.07,48.2c0-0.02,0-0.05,0-0.07
				c0.3,0,0.59-0.03,0.89,0.01c1.04,0.12,1.25-0.23,0.82-1.19c-0.43-0.96-0.71-2-1.09-2.99c-0.08-0.21-0.28-0.37-0.42-0.56
				c-0.05,0.17-0.08,0.35-0.14,0.51c-0.45,1.09-0.89,2.19-1.38,3.27c-0.31,0.69-0.37,1.14,0.61,1.03
				C146.59,48.18,146.83,48.2,147.07,48.2z"/>
			<path class="st1" d="M114.58,36.8c1.54,0,2.75,0.21,3.93,0.68c0.65,0.26,0.98,0.67,0.76,1.37c-0.2,0.64-0.44,1.27-1.31,1.15
				c-0.41-0.06-0.82-0.13-1.23-0.22c-0.52-0.12-1.03-0.3-1.56-0.38c-1.61-0.24-3.21,0.39-3.58,1.39c-0.32,0.87,0.34,1.91,1.91,2.88
				c1.36,0.84,2.78,1.58,4.11,2.47c1.9,1.27,3.29,2.88,3.16,5.39c-0.1,2.01-1.68,4.36-3.56,4.9c-2.77,0.79-5.49,0.53-8.12-0.7
				c-0.96-0.45-1.2-1.09-0.65-1.99c0.44-0.72,0.82-1.41,1.93-0.74c1.27,0.76,2.66,1.31,4.23,1.16c1.35-0.12,2.91-1.05,3.08-2.02
				c0.25-1.43-0.27-2.55-1.52-3.32c-1.57-0.96-3.14-1.91-4.71-2.86c-0.99-0.59-1.8-1.38-2.31-2.41c-1.38-2.78,0.02-5.77,3.07-6.51
				C113.06,36.84,113.95,36.65,114.58,36.8z"/>
			<path class="st2" d="M165.74,39.63c-0.85,0.77-1.89,0.49-2.86,0.46c-3.47-0.12-3.47-0.14-3.5,3.33c0,0.24-0.03,0.48-0.04,0.71
				c-0.03,1.83,0.03,1.89,1.87,1.91c1.13,0.01,2.26,0.07,3.39,0.01c1.06-0.05,1.14,0.63,1.16,1.37c0.03,0.8-0.36,1.2-1.19,1.2
				c-1.37-0.01-2.74,0.02-4.1-0.01c-0.84-0.02-1.16,0.31-1.14,1.15c0.04,1.84-0.02,3.69,0.01,5.53c0.02,0.98-0.22,1.64-1.38,1.55
				c-0.98-0.07-1.56-0.26-1.59-1.54c-0.11-4.69,0.24-9.37,0.3-14.05c0.01-0.94-0.21-1.87-0.04-2.82c0.1-0.56,0.34-0.9,0.89-0.9
				c2.5-0.02,4.99-0.02,7.49,0.01c0.2,0,0.39,0.24,0.59,0.36C165.64,38.48,165.69,39.06,165.74,39.63z"/>
			<path class="st1" d="M166.38,37.8c1.79-0.53,3.63-0.17,5.45-0.26c1.3-0.06,2.61-0.01,3.91-0.05c0.93-0.03,1.06,0.51,1.04,1.25
				c-0.02,0.68,0.01,1.28-0.96,1.35c-0.96,0.07-2.18-0.51-2.82,0.46c-0.51,0.77-0.21,1.86-0.23,2.79c-0.05,3.74,0.1,7.47-0.16,11.21
				c-0.15,2.08-0.03,2.09-2.23,2.14c-0.11-0.15-0.24-0.26-0.45-0.22c-0.05-0.26-0.1-0.52-0.15-0.78c0.01-0.14,0.02-0.29,0.04-0.43
				c0.11-4.98,0.12-9.95,0.02-14.93c0.07-0.24-0.02-0.33-0.26-0.26c-1.11-0.28-2.33,0.34-3.37-0.42
				C166.44,39.07,166.32,38.43,166.38,37.8z"/>
			<path class="st0" d="M101.01,48.09c0-2.2,0.01-4.4,0-6.6c-0.01-1.57-0.17-1.73-1.73-1.76c-0.42-0.01-0.83,0.01-1.25,0.02
				c-0.59,0.01-0.88-0.27-0.9-0.85c-0.01-0.58-0.19-1.28,0.6-1.47c0.5-0.12,1.02-0.23,1.58-0.19c2.31,0.17,4.62,0.32,6.93-0.08
				c1.11-0.19,1.53,0.24,1.64,1.34c0.11,1.12-0.56,1.3-1.45,1.26c-0.24-0.01-0.48-0.02-0.71-0.01c-1.86,0.04-1.86,0.09-1.87,1.91
				c-0.02,4.45,0.07,8.91-0.21,13.37c-0.06,0.99-0.42,1.45-1.35,1.43c-0.98-0.02-1.47-0.49-1.44-1.57c0.06-2.26,0.02-4.52,0.02-6.79
				C100.92,48.09,100.96,48.09,101.01,48.09z"/>
			<path class="st3" d="M82.08,46.88c0,2.73-0.06,5.46,0.03,8.19c0.04,1.08-0.55,1.18-1.3,1.18c-0.74,0-1.58,0.16-1.58-1.09
				c0.03-5.52,0.02-11.04,0.01-16.56c0-1.41,0.98-1.18,1.87-1.21c0.97-0.04,1.16,0.4,1.14,1.31c-0.07,2.73-0.02,5.46-0.02,8.19
				C82.17,46.88,82.13,46.88,82.08,46.88z"/>
			<path class="st5" d="M194.25,27.05c0-1.43-0.01-2.85,0.01-4.28c0-0.32-0.11-0.78,0.42-0.82c0.58-0.04,0.65,0.37,0.63,0.83
				c-0.01,0.18,0,0.36,0,0.54c0.05,2.9,0.05,2.9,3.03,2.9c0.42,0,0.83-0.02,1.25,0c0.67,0.04,0.98-0.24,0.96-0.93
				c-0.02-0.89,0-1.78,0-2.67c0-0.41,0.15-0.72,0.61-0.67c0.35,0.04,0.44,0.34,0.43,0.66c-0.01,3.03-0.01,6.06-0.02,9.09
				c0,0.33-0.14,0.59-0.5,0.6c-0.35,0-0.51-0.25-0.52-0.58c-0.01-1.07-0.04-2.14,0-3.21c0.04-0.86-0.16-1.35-1.17-1.26
				c-1.29,0.11-2.92-0.49-3.79,0.24c-0.84,0.7-0.18,2.35-0.28,3.58c-0.02,0.24,0,0.48-0.02,0.71c-0.02,0.36-0.25,0.52-0.58,0.52
				c-0.41,0-0.45-0.33-0.45-0.62C194.25,30.14,194.26,28.6,194.25,27.05C194.26,27.05,194.26,27.05,194.25,27.05z"/>
			<path class="st6" d="M149.2,27.09c0-1.19-0.02-2.38,0.01-3.56c0.01-0.45-0.25-1.12,0.17-1.3c0.49-0.22,0.72,0.47,1.01,0.8
				c1.66,1.86,3.28,3.76,4.93,5.63c0.22,0.24,0.39,0.72,0.78,0.58c0.43-0.15,0.19-0.62,0.19-0.93c0.03-1.84,0.01-3.68,0.02-5.52
				c0-0.33-0.1-0.78,0.41-0.83c0.56-0.05,0.65,0.35,0.65,0.82c-0.01,2.91,0,5.82-0.01,8.73c0,0.23,0.05,0.51-0.25,0.58
				c-0.27,0.06-0.4-0.17-0.56-0.35c-1.8-2.06-3.6-4.11-5.4-6.16c-0.19-0.21-0.35-0.6-0.63-0.54c-0.48,0.11-0.25,0.58-0.25,0.89
				c-0.03,1.43,0.05,2.85-0.04,4.28c-0.05,0.72,0.52,2.07-0.57,2.03c-1.01-0.03-0.37-1.37-0.45-2.11
				C149.11,29.12,149.2,28.1,149.2,27.09z"/>
			<path class="st7" d="M134.59,27.14c0,1.31,0.01,2.62-0.01,3.92c-0.01,0.33,0.19,0.78-0.18,0.96c-0.42,0.2-0.58-0.29-0.8-0.53
				c-1.73-1.96-3.44-3.94-5.17-5.9c-0.21-0.24-0.38-0.74-0.78-0.55c-0.36,0.17-0.15,0.63-0.15,0.96c-0.02,1.78,0,3.57-0.02,5.35
				c0,0.38,0.14,0.93-0.48,0.97c-0.76,0.04-0.59-0.59-0.59-1.03c-0.01-2.79-0.01-5.59,0-8.38c0-0.26-0.17-0.65,0.24-0.74
				c0.33-0.07,0.49,0.27,0.68,0.48c1.8,2.06,3.59,4.13,5.39,6.18c0.18,0.2,0.31,0.61,0.64,0.5c0.33-0.12,0.15-0.51,0.15-0.77
				c0.01-1.9,0.01-3.81,0.01-5.71c0-0.4-0.09-0.92,0.54-0.91c0.6,0.01,0.54,0.51,0.54,0.92C134.59,24.28,134.59,25.71,134.59,27.14z
				"/>
			<path class="st8" d="M82.08,27.08c0-1.31-0.02-2.62,0.01-3.92c0.01-0.47-0.28-1.23,0.59-1.21c0.74,0.02,0.45,0.7,0.48,1.12
				c0.04,0.71,0.05,1.43,0,2.14c-0.05,0.8,0.29,1.04,1.04,1.01c1.07-0.04,2.14-0.05,3.21,0c0.78,0.03,1.06-0.28,1.02-1.04
				c-0.04-0.83-0.02-1.67-0.01-2.5c0-0.36,0.01-0.76,0.52-0.74c0.45,0.01,0.58,0.32,0.57,0.73c-0.01,1.01,0,2.02,0,3.03
				c0,1.9,0,3.81,0,5.71c0,0.43,0.01,0.9-0.58,0.9c-0.64,0-0.5-0.54-0.51-0.92c-0.02-0.95-0.05-1.91,0.01-2.85
				c0.06-0.88-0.17-1.35-1.16-1.27c-1.3,0.11-2.93-0.5-3.82,0.23c-0.85,0.7-0.18,2.35-0.29,3.58c-0.02,0.18,0,0.36-0.01,0.54
				c-0.02,0.37-0.08,0.74-0.57,0.7c-0.48-0.04-0.51-0.41-0.51-0.78C82.08,30.05,82.08,28.57,82.08,27.08z"/>
			<path class="st8" d="M112.8,31.76c0.02,0.23,0.02,0.42-0.17,0.51c-0.3,0.14-0.65,0.07-0.8-0.17c-0.41-0.72-0.81-1.46-1.1-2.23
				c-0.27-0.73-0.69-1.06-1.46-0.94c-0.29,0.04-0.6,0.05-0.89,0c-1.93-0.37-3.17,0.32-3.67,2.26c-0.09,0.33-0.3,0.64-0.5,0.93
				c-0.2,0.27-0.54,0.31-0.8,0.17c-0.36-0.19-0.15-0.49-0.02-0.76c1.05-2.19,2.04-4.42,3.15-6.58c0.49-0.96,0.65-2.13,1.58-2.85
				c0.72,0.81,1.01,1.84,1.47,2.79c1,2.09,1.95,4.19,2.93,6.29C112.6,31.39,112.72,31.59,112.8,31.76z M108.16,27.85
				c0.23-0.43,1.95,0.87,1.16-0.99c-0.34-0.8-0.6-2.22-1.2-2.19c-0.85,0.04-0.87,1.44-1.34,2.21c-0.38,0.62-0.46,1.1,0.54,0.99
				C107.55,27.83,107.79,27.85,108.16,27.85z"/>
			<path class="st9" d="M175.47,28.94c-1.57-0.59-2.27,0.56-2.83,2.01c-0.24,0.61-0.45,1.72-1.31,1.31
				c-0.77-0.36,0.09-1.12,0.32-1.63c1.2-2.65,2.47-5.27,3.7-7.9c0.13-0.27,0.24-0.67,0.52-0.67c0.27,0,0.4,0.39,0.53,0.66
				c1.35,2.91,2.7,5.82,4.05,8.72c0.12,0.26,0.39,0.54,0.07,0.78c-0.33,0.25-0.69,0.12-0.92-0.2c-0.2-0.29-0.34-0.62-0.5-0.94
				C178.06,28.94,178.06,28.94,175.47,28.94z M175.81,27.84c0.23,0,0.47-0.02,0.7,0c1.09,0.13,1.04-0.39,0.59-1.07
				c-0.48-0.74-0.51-1.74-1.31-2.3c-0.47,0.94-0.96,1.87-1.4,2.83c-0.26,0.56,0.2,0.52,0.54,0.54
				C175.23,27.85,175.52,27.85,175.81,27.84z"/>
			<path class="st10" d="M119.92,7.42c0,0.83,0.01,1.67,0,2.5c0,0.39-0.12,0.72-0.6,0.68c-0.39-0.03-0.44-0.35-0.44-0.65
				c-0.01-0.71,0-1.43-0.01-2.14c0-0.15-0.04-0.42-0.11-0.43c-0.24-0.06-0.24,0.2-0.31,0.34c-0.19,0.43-0.39,0.87-0.55,1.32
				c-0.13,0.37-0.31,0.63-0.74,0.65c-0.5,0.02-0.7-0.27-0.91-0.68c-0.26-0.49-0.23-1.17-0.88-1.42c-0.21,0.57-0.05,1.16-0.09,1.74
				c-0.02,0.24,0,0.48-0.02,0.71c-0.02,0.33-0.16,0.59-0.53,0.56c-0.26-0.02-0.42-0.22-0.42-0.48c-0.01-1.79-0.01-3.57-0.01-5.36
				c0-0.34,0.18-0.54,0.54-0.56c0.34-0.02,0.58,0.14,0.71,0.43c0.39,0.87,0.77,1.74,1.15,2.61c0.12,0.27,0.2,0.62,0.54,0.6
				c0.12-0.01,0.24-0.37,0.33-0.58c0.34-0.83,0.66-1.66,0.99-2.49c0.18-0.45,0.48-0.67,0.97-0.55c0.47,0.12,0.39,0.53,0.4,0.87
				C119.93,5.87,119.92,6.65,119.92,7.42z"/>
			<path class="st11" d="M84.45,7.38c0-0.3-0.08-0.62,0.02-0.88c0.29-0.76-0.79-2.03,0.76-2.28c2.34-0.38,3.61,0.19,4.1,1.8
				c0.42,1.36,0.38,2.73-0.64,3.84c-1.02,1.11-2.42,0.74-3.69,0.76c-0.48,0.01-0.54-0.37-0.54-0.74
				C84.44,9.04,84.45,8.21,84.45,7.38z M85.53,7.4c0,0.42-0.01,0.83,0,1.25c0.05,1.13,0.29,1.28,1.41,1.03
				c1.19-0.27,1.42-1.19,1.43-2.16c0.01-1.02-0.12-2.06-1.33-2.45c-1.09-0.35-1.47-0.07-1.51,1.09C85.53,6.57,85.53,6.98,85.53,7.4z
				"/>
			<path class="st12" d="M147.11,7.43c-0.03,1.26-0.3,2.4-1.47,3.06c-1.5,0.85-3.35,0.15-3.92-1.49c-0.3-0.85-0.35-1.73-0.16-2.62
				c0.34-1.55,1.23-2.36,2.64-2.38c1.49-0.02,2.52,0.84,2.83,2.4C147.1,6.74,147.08,7.1,147.11,7.43z M145.96,7.21
				c-0.02-0.13-0.04-0.43-0.11-0.71c-0.23-0.82-0.52-1.65-1.56-1.64c-1.01,0.01-1.39,0.75-1.56,1.63c-0.05,0.29-0.14,0.58-0.15,0.87
				c-0.04,1.51,0.75,2.67,1.77,2.62C145.29,9.92,145.98,8.81,145.96,7.21z"/>
			<path class="st5" d="M186.31,7.33c0-0.59-0.04-1.19,0.01-1.78c0.04-0.47-0.32-1.16,0.48-1.32c0.68-0.13,0.86,0.51,1.14,0.93
				c0.46,0.69,0.89,1.41,1.35,2.09c0.15,0.22,0.24,0.63,0.59,0.56c0.5-0.09,0.3-0.56,0.32-0.86c0.04-0.71,0.01-1.43,0.02-2.14
				c0.01-0.33,0.12-0.58,0.5-0.57c0.29,0.01,0.41,0.22,0.41,0.47c0.01,1.78,0.01,3.56,0,5.34c0,0.24-0.08,0.46-0.37,0.52
				c-0.39,0.07-0.69-0.06-0.9-0.4c-0.64-1-1.29-1.99-1.93-2.99c-0.12-0.19-0.22-0.46-0.5-0.39c-0.34,0.08-0.18,0.39-0.18,0.59
				c-0.02,0.83,0,1.66-0.01,2.49c0,0.3-0.05,0.65-0.4,0.68c-0.5,0.04-0.52-0.37-0.52-0.73C186.31,9,186.32,8.16,186.31,7.33z"/>
			<path class="st12" d="M133.18,6.97c0,0.42,0.01,0.83,0,1.25c-0.05,2.21-1.55,3.2-3.61,2.41c-0.66-0.25-1.11-0.7-1.13-1.45
				c-0.03-1.43-0.04-2.85-0.05-4.28c0-0.38,0.07-0.72,0.57-0.69c0.48,0.02,0.56,0.35,0.56,0.73c0.01,1.19,0.01,2.38,0,3.56
				c-0.01,0.82,0.28,1.4,1.18,1.45c1,0.06,1.38-0.52,1.39-1.43c0.02-1.19,0.03-2.38,0.05-3.56c0.01-0.37,0.06-0.76,0.55-0.74
				c0.5,0.02,0.47,0.43,0.48,0.78C133.19,5.66,133.18,6.31,133.18,6.97z"/>
			<path class="st13" d="M134.14,7.4c0-0.47-0.06-0.96,0.02-1.42c0.1-0.59-0.41-1.56,0.39-1.7c0.99-0.17,2.15-0.44,3.07,0.33
				c0.66,0.56,0.9,1.49,0.35,2.07c-0.91,0.97-0.51,1.68-0.01,2.57c0.21,0.38,0.98,0.9,0.29,1.31c-0.65,0.38-1.02-0.3-1.29-0.86
				c-0.08-0.16-0.15-0.33-0.26-0.47c-0.33-0.45-0.49-1.3-1.16-1.14c-0.6,0.15-0.21,0.92-0.3,1.4c-0.02,0.11,0,0.24,0,0.36
				c-0.01,0.37-0.08,0.74-0.54,0.76c-0.49,0.02-0.54-0.36-0.55-0.72C134.14,9.06,134.15,8.23,134.14,7.4
				C134.14,7.4,134.14,7.4,134.14,7.4z M135.85,4.96c-0.89,0.05-0.59,0.73-0.62,1.2c-0.02,0.45-0.14,1.02,0.64,0.97
				c0.7-0.05,1.14-0.45,1.15-1.12C137.04,5.29,136.52,5,135.85,4.96z"/>
			<path class="st11" d="M111.06,10.79c-0.83-0.02-1.69-0.01-2.16-0.9c-0.14-0.27-0.21-0.58,0.11-0.78c0.22-0.14,0.5-0.11,0.65,0.06
				c0.71,0.84,1.65,1.37,2.26,0.21c0.64-1.21-0.77-1.31-1.47-1.68c-1.42-0.77-1.92-1.78-1.31-2.81c0.52-0.89,2.44-1.24,3.37-0.59
				c0.29,0.2,0.62,0.49,0.44,0.86c-0.19,0.37-0.61,0.32-0.92,0.1c-0.3-0.2-0.56-0.42-0.95-0.41c-0.46,0.01-0.81,0.22-0.97,0.64
				c-0.14,0.38,0.09,0.71,0.39,0.9c0.45,0.28,0.93,0.51,1.41,0.73c0.96,0.45,1.54,1.13,1.3,2.24
				C112.96,10.49,112.1,10.8,111.06,10.79z"/>
			<path class="st11" d="M170.25,10.79c-0.77-0.03-1.57-0.01-2.03-0.8c-0.14-0.24-0.33-0.53-0.07-0.81c0.24-0.26,0.58-0.24,0.79,0
				c0.73,0.84,1.67,1.34,2.26,0.16c0.6-1.21-0.81-1.28-1.51-1.66c-1.33-0.73-1.85-1.65-1.38-2.67c0.43-0.93,2.27-1.39,3.32-0.8
				c0.36,0.2,0.77,0.51,0.51,0.98c-0.21,0.37-0.66,0.25-0.93,0.02c-0.35-0.3-0.7-0.42-1.14-0.33c-0.39,0.07-0.64,0.31-0.73,0.68
				c-0.08,0.32,0.06,0.6,0.33,0.76c0.51,0.3,1.03,0.57,1.56,0.83c0.95,0.47,1.53,1.17,1.23,2.27
				C172.16,10.52,171.29,10.83,170.25,10.79z"/>
			<path class="st11" d="M150.08,10.78c-0.94,0-1.73-0.02-2.2-0.8c-0.15-0.25-0.27-0.55,0.01-0.81c0.27-0.26,0.57-0.15,0.79,0.06
				c0.3,0.28,0.47,0.67,0.96,0.72c0.6,0.07,1.09-0.08,1.33-0.65c0.23-0.55-0.1-0.91-0.56-1.15c-0.58-0.31-1.19-0.54-1.74-0.89
				c-0.73-0.46-1-1.18-0.76-2.02c0.22-0.77,0.83-1.14,1.6-1.21c0.83-0.07,1.69-0.19,2.27,0.64c0.09,0.13,0.14,0.36,0.08,0.49
				c-0.1,0.25-0.39,0.3-0.6,0.21c-0.33-0.12-0.61-0.38-0.93-0.48c-0.49-0.15-0.95-0.02-1.23,0.46c-0.33,0.58,0.09,0.9,0.49,1.15
				c0.4,0.25,0.85,0.42,1.28,0.63c0.94,0.46,1.56,1.14,1.27,2.27C151.84,10.52,150.98,10.83,150.08,10.78z"/>
			<path class="st9" d="M97.91,8.94c-0.98-0.26-1.44,0.21-1.68,1.08c-0.12,0.41-0.44,0.78-0.93,0.55c-0.49-0.24-0.12-0.62-0.01-0.91
				c0.61-1.54,1.25-3.07,1.88-4.61c0.18-0.43,0.32-0.9,0.96-0.86c0.64,0.04,0.7,0.55,0.87,0.98c0.57,1.49,1.14,2.99,1.69,4.49
				c0.11,0.29,0.48,0.67-0.02,0.9c-0.42,0.19-0.86,0.04-1-0.45C99.41,9.2,98.97,8.6,97.91,8.94z M98.05,8.16
				c0.21-0.12,0.83,0.14,0.69-0.42c-0.15-0.59-0.23-1.59-0.8-1.6c-0.42-0.01-0.67,1.05-0.75,1.67C97.12,8.31,97.69,8.07,98.05,8.16z
				"/>
			<path class="st10" d="M191.88,7.65c0.02-2.53,1.27-3.86,3.21-3.67c0.42,0.04,0.84,0.12,1.16,0.4c0.36,0.3,0.83,0.69,0.46,1.16
				c-0.31,0.38-0.67,0.01-1.02-0.26c-1-0.75-1.92-0.47-2.37,0.67c-0.36,0.92-0.36,1.87-0.04,2.79c0.43,1.24,1.36,1.52,2.44,0.73
				c0.37-0.27,0.74-0.57,1.04-0.15c0.28,0.39-0.11,0.78-0.43,1.05c-1.22,1.02-3.59,0.3-4.15-1.27
				C191.97,8.54,191.93,7.94,191.88,7.65z"/>
			<path class="st12" d="M173.06,7.6c0.02-2.61,1.36-3.94,3.37-3.6c0.47,0.08,0.94,0.2,1.24,0.62c0.19,0.28,0.51,0.6,0.2,0.92
				c-0.29,0.3-0.6,0.08-0.92-0.14c-1.29-0.89-2.2-0.58-2.59,0.87c-0.22,0.81-0.22,1.66,0.06,2.46c0.43,1.24,1.37,1.53,2.45,0.76
				c0.36-0.26,0.71-0.62,1.02-0.17c0.27,0.39-0.11,0.78-0.43,1.05c-1.31,1.07-3.69,0.25-4.2-1.47C173.1,8.41,173.1,7.86,173.06,7.6z
				"/>
			<path class="st10" d="M181.11,7.33c0-0.18,0-0.36,0-0.54c0-2.65,0.67-3.16,3.35-2.59c0.23,0.05,0.48,0.08,0.48,0.4
				c0,0.3-0.22,0.39-0.46,0.4c-0.47,0.02-0.95,0.04-1.42,0.02c-0.59-0.03-0.85,0.2-0.86,0.82c-0.02,0.66,0.16,1.03,0.89,0.95
				c0.23-0.02,0.48-0.02,0.71,0c0.33,0.02,0.8-0.05,0.75,0.47c-0.04,0.36-0.44,0.29-0.72,0.34c-0.56,0.11-1.36-0.4-1.61,0.58
				c-0.28,1.12,0.08,1.5,1.35,1.58c0.53,0.04,1.49-0.36,1.49,0.41c0.01,0.82-0.96,0.41-1.47,0.41c-2.91,0.01-2.43,0.38-2.47-2.39
				C181.11,7.92,181.11,7.62,181.11,7.33z"/>
			<path class="st13" d="M123.8,7.36c0.01,0.65,0.04,1.3,0.43,1.87c0.59,0.86,1.23,0.95,2.2,0.25c0.36-0.26,0.71-0.61,1.02-0.15
				c0.26,0.39-0.11,0.78-0.44,1.04c-1.2,0.95-3.47,0.35-4.06-1.14c-0.49-1.24-0.52-2.57,0.07-3.8c0.73-1.55,3.21-1.99,4.21-0.79
				c0.22,0.26,0.47,0.6,0.18,0.93c-0.23,0.26-0.53,0.1-0.79-0.06C124.84,4.44,123.83,5.11,123.8,7.36z"/>
			<path class="st11" d="M90.29,7.38c0-0.24-0.03-0.48,0.01-0.71c0.12-0.8-0.43-2,0.3-2.31c0.9-0.39,2.09-0.13,3.15-0.12
				c0.25,0,0.45,0.21,0.38,0.47c-0.03,0.12-0.25,0.26-0.39,0.27c-0.47,0.04-0.95,0.06-1.42,0.04c-0.67-0.04-0.93,0.21-0.94,0.92
				c-0.01,0.77,0.36,0.86,0.98,0.87c0.48,0.02,1.33-0.3,1.34,0.38c0.01,0.69-0.86,0.41-1.33,0.39c-0.99-0.05-0.96,0.52-0.99,1.24
				c-0.04,0.86,0.41,0.89,1.08,0.98c0.6,0.07,1.69-0.54,1.7,0.49c0,0.63-1.1,0.32-1.69,0.32c-2.35,0-2.16,0.43-2.16-2.16
				C90.29,8.1,90.29,7.74,90.29,7.38z"/>
			<path class="st13" d="M197.79,7.27c0-0.12,0-0.24,0-0.36c0-3,0.24-3.2,3.2-2.73c0.24,0.04,0.5,0.06,0.55,0.33
				c0.07,0.4-0.23,0.49-0.54,0.5c-0.36,0.02-0.71,0.04-1.06,0c-0.72-0.07-1.07,0.13-1.07,0.95c0,0.79,0.4,0.87,1,0.83
				c0.18-0.01,0.36-0.02,0.53-0.01c0.29,0.01,0.68-0.05,0.73,0.32c0.07,0.53-0.41,0.4-0.72,0.49c-0.53,0.15-1.36-0.43-1.52,0.66
				c-0.18,1.23,0.02,1.43,1.38,1.53c0.51,0.04,1.42-0.41,1.43,0.45c0.01,0.68-0.86,0.37-1.32,0.36c-3-0.05-2.52,0.52-2.57-2.45
				C197.79,7.87,197.79,7.57,197.79,7.27z"/>
			<path class="st10" d="M103.81,10.63c-2.24-0.01-2.24-0.01-2.23-2.26c0-1.12-0.01-2.25,0-3.37c0-0.35-0.01-0.75,0.49-0.78
				c0.62-0.04,0.61,0.42,0.61,0.84c0.01,1.12,0.08,2.25-0.01,3.37c-0.1,1.15,0.38,1.49,1.42,1.34c0.12-0.02,0.24-0.03,0.35,0
				c0.5,0.14,1.45-0.38,1.42,0.47c-0.04,0.74-0.98,0.27-1.51,0.39C104.18,10.67,103.99,10.63,103.81,10.63z"/>
			<path class="st13" d="M163.22,10.61c-0.52,0-0.71-0.3-0.65-0.69c0.32-1.92-0.61-3.41-1.61-4.89c-0.14-0.21-0.45-0.48-0.08-0.74
				c0.26-0.18,0.61-0.15,0.83,0.03c0.26,0.22,0.45,0.53,0.65,0.82c0.83,1.21,0.83,1.21,1.69-0.07c0.17-0.24,0.31-0.51,0.52-0.71
				c0.23-0.21,0.55-0.26,0.81-0.05c0.23,0.19,0.01,0.43-0.07,0.61c-0.12,0.27-0.28,0.52-0.46,0.76c-0.87,1.17-1.44,2.41-1.23,3.93
				C163.67,9.99,163.77,10.49,163.22,10.61z"/>
			<path class="st6" d="M157.08,7.83c0-0.47-0.04-0.95,0.01-1.42c0.09-0.96-0.05-1.65-1.28-1.46c-0.31,0.05-0.8,0.12-0.78-0.42
				c0.01-0.38,0.41-0.33,0.69-0.34c1.3-0.01,2.6-0.01,3.91,0c0.23,0,0.51,0.04,0.56,0.31c0.07,0.42-0.29,0.5-0.56,0.45
				c-1.38-0.24-1.56,0.49-1.47,1.62c0.08,1.06,0.02,2.13,0.01,3.19c0,0.44-0.02,0.88-0.63,0.82c-0.5-0.05-0.44-0.47-0.45-0.81
				C157.07,9.13,157.08,8.48,157.08,7.83z"/>
			<path class="st14" d="M83.38,7.53c0,0.77,0.01,1.54,0,2.31c-0.01,0.44-0.08,0.86-0.67,0.81c-0.47-0.04-0.53-0.41-0.53-0.77
				c-0.01-1.66-0.01-3.32,0-4.98c0-0.38,0.11-0.71,0.58-0.72c0.47-0.01,0.61,0.3,0.62,0.68C83.39,5.75,83.38,6.64,83.38,7.53z"/>
			<path class="st13" d="M178.92,7.43c0-0.83,0-1.67,0-2.5c0-0.38,0.07-0.72,0.57-0.71c0.38,0.01,0.5,0.26,0.5,0.58
				c0.01,1.73,0.01,3.45,0.01,5.18c0,0.3-0.07,0.6-0.46,0.63c-0.48,0.03-0.61-0.28-0.61-0.67C178.92,9.1,178.92,8.26,178.92,7.43z"
				/>
			<path class="st12" d="M153.21,7.31c0-0.77,0-1.55,0-2.32c0-0.37,0.03-0.73,0.51-0.78c0.52-0.05,0.56,0.33,0.56,0.7
				c0.01,1.67,0.01,3.33,0,5c0,0.36-0.05,0.76-0.56,0.7c-0.46-0.05-0.51-0.43-0.51-0.8C153.21,8.98,153.21,8.15,153.21,7.31z"/>
			<path class="st12" d="M140.33,7.43c0,0.89,0.01,1.79-0.01,2.68c-0.01,0.35-0.21,0.54-0.57,0.5c-0.27-0.03-0.45-0.19-0.45-0.45
				c-0.01-1.84-0.02-3.69,0-5.54c0-0.26,0.23-0.4,0.49-0.41c0.37-0.02,0.54,0.2,0.54,0.54C140.34,5.65,140.33,6.54,140.33,7.43
				C140.33,7.43,140.33,7.43,140.33,7.43z"/>
			<path class="st12" d="M106.7,7.43c0-0.82,0-1.65,0-2.47c0-0.36,0.04-0.73,0.52-0.75c0.49-0.03,0.56,0.32,0.57,0.7
				c0.01,1.65,0.01,3.3,0,4.95c0,0.36-0.02,0.74-0.51,0.76c-0.48,0.02-0.56-0.33-0.57-0.71C106.7,9.09,106.71,8.26,106.7,7.43
				C106.71,7.43,106.71,7.43,106.7,7.43z"/>
			<path class="st15" d="M166.38,37.8c-0.05,0.63,0.06,1.27-0.17,1.89c-0.16-0.02-0.32-0.04-0.48-0.06
				c-0.05-0.57-0.09-1.15-0.14-1.72C165.86,37.87,166.12,37.84,166.38,37.8z"/>
			<path class="st15" d="M169.58,40.11c0.24-0.07,0.32,0.02,0.26,0.26C169.75,40.28,169.67,40.19,169.58,40.11z"/>
			<path class="st15" d="M169.82,55.3c-0.01,0.14-0.02,0.29-0.04,0.43c-0.03-0.1-0.07-0.2-0.08-0.31
				C169.7,55.38,169.78,55.34,169.82,55.3z"/>
			<path class="st15" d="M169.94,56.5c0.21-0.04,0.34,0.06,0.45,0.22C170.18,56.77,170.02,56.71,169.94,56.5z"/>
			<path class="st16" d="M193.2,43.54c0.17-3.43,0.34-3.55,3.45-3.25c0.87,0.08,1.62,0.42,2.26,0.95c1.35,1.12,1.21,3.36-0.26,4.28
				c-1.5,0.94-3.18,0.82-4.85,0.76c-0.49-0.02-0.49-0.41-0.51-0.77C193.26,44.74,193.22,43.97,193.2,43.54z"/>
			<path class="st17" d="M147.07,48.2c-0.24,0-0.48-0.02-0.71,0c-0.98,0.11-0.92-0.34-0.61-1.03c0.49-1.08,0.92-2.18,1.38-3.27
				c0.07-0.16,0.1-0.34,0.14-0.51c0.14,0.18,0.34,0.35,0.42,0.56c0.37,0.99,0.65,2.03,1.09,2.99c0.43,0.96,0.22,1.31-0.82,1.19
				c-0.29-0.03-0.59-0.01-0.89-0.01C147.07,48.16,147.07,48.18,147.07,48.2z"/>
			<path class="st18" d="M108.16,27.85c-0.37,0-0.61-0.02-0.84,0c-1,0.11-0.92-0.37-0.54-0.99c0.47-0.76,0.49-2.17,1.34-2.21
				c0.61-0.03,0.86,1.39,1.2,2.19C110.11,28.72,108.39,27.43,108.16,27.85z"/>
			<path class="st19" d="M175.81,27.84c-0.29,0-0.59,0.01-0.88,0c-0.34-0.01-0.8,0.02-0.54-0.54c0.44-0.95,0.93-1.89,1.4-2.83
				c0.8,0.56,0.83,1.56,1.31,2.3c0.45,0.68,0.5,1.2-0.59,1.07C176.29,27.82,176.05,27.84,175.81,27.84z"/>
			<path class="st19" d="M85.53,7.4c0-0.42-0.01-0.83,0-1.25c0.04-1.17,0.41-1.44,1.51-1.09c1.22,0.39,1.34,1.43,1.33,2.45
				c-0.01,0.97-0.24,1.89-1.43,2.16c-1.13,0.26-1.37,0.11-1.41-1.03C85.52,8.23,85.53,7.81,85.53,7.4z"/>
			<path class="st19" d="M145.96,7.21c0.02,1.6-0.67,2.71-1.6,2.76c-1.02,0.05-1.82-1.11-1.77-2.62c0.01-0.29,0.09-0.58,0.15-0.87
				c0.17-0.88,0.55-1.62,1.56-1.63c1.04-0.01,1.33,0.82,1.56,1.64C145.93,6.78,145.94,7.07,145.96,7.21z"/>
			<path class="st18" d="M135.85,4.96c0.66,0.04,1.18,0.33,1.17,1.05c-0.01,0.67-0.44,1.07-1.15,1.12
				c-0.78,0.05-0.66-0.52-0.64-0.97C135.26,5.69,134.96,5.01,135.85,4.96z"/>
			<path class="st17" d="M98.05,8.16c-0.36-0.09-0.93,0.15-0.86-0.35c0.08-0.62,0.33-1.68,0.75-1.67c0.57,0.01,0.65,1.01,0.8,1.6
				C98.87,8.3,98.26,8.03,98.05,8.16z"/>
		</g>
	</g>
</g>
</svg>
